REM DIRINDEX 1\2\4,1\2\5,1\2\6,1\3\7,1\3\8,1\3\9,1\3\10
REM DIRNAME cjc058,folder01,folder02,folder03,folder04,folder05,folder06,folder07,folder08,folder09
TITLE ""
FILE "b_72.mp3" MP3
  TRACK 01 AUDIO
    TITLE "0:"
    INDEX 01 00:00:00
  TRACK 02 AUDIO
    TITLE "10:cjc058_5113"
    INDEX 01 00:00:13
  TRACK 03 AUDIO
    TITLE "0:"
    INDEX 01 00:02:55
  TRACK 04 AUDIO
    TITLE "7:cjc058_5114"
    INDEX 01 00:03:23
  TRACK 05 AUDIO
    TITLE "0:"
    INDEX 01 00:04:42
  TRACK 06 AUDIO
    TITLE "8:cjc058_5115"
    INDEX 01 00:04:72
  TRACK 07 AUDIO
    TITLE "0:"
    INDEX 01 00:07:03
  TRACK 08 AUDIO
    TITLE "9:cjc058_5116"
    INDEX 01 00:07:47
  TRACK 09 AUDIO
    TITLE "0:"
    INDEX 01 00:10:72
  TRACK 10 AUDIO
    TITLE "7:cjc058_5117"
    INDEX 01 00:12:01
  TRACK 11 AUDIO
    TITLE "0:"
    INDEX 01 00:13:67
  TRACK 12 AUDIO
    TITLE "8:cjc058_5118"
    INDEX 01 00:14:23
  TRACK 13 AUDIO
    TITLE "0:"
    INDEX 01 00:16:22
  TRACK 14 AUDIO
    TITLE "9:cjc058_5119"
    INDEX 01 00:16:63
  TRACK 15 AUDIO
    TITLE "0:"
    INDEX 01 00:20:18
  TRACK 16 AUDIO
    TITLE "7:cjc058_5120"
    INDEX 01 00:21:23
  TRACK 17 AUDIO
    TITLE "0:"
    INDEX 01 00:23:32
  TRACK 18 AUDIO
    TITLE "8:cjc058_5121"
    INDEX 01 00:23:63
  TRACK 19 AUDIO
    TITLE "0:"
    INDEX 01 00:26:07
  TRACK 20 AUDIO
    TITLE "9:cjc058_5122"
    INDEX 01 00:26:50
  TRACK 21 AUDIO
    TITLE "0:"
    INDEX 01 00:30:32
  TRACK 22 AUDIO
    TITLE "7:cjc058_5123"
    INDEX 01 00:31:35
  TRACK 23 AUDIO
    TITLE "0:"
    INDEX 01 00:33:17
  TRACK 24 AUDIO
    TITLE "8:cjc058_5124"
    INDEX 01 00:33:50
  TRACK 25 AUDIO
    TITLE "0:"
    INDEX 01 00:35:51
  TRACK 26 AUDIO
    TITLE "9:cjc058_5125"
    INDEX 01 00:36:21
  TRACK 27 AUDIO
    TITLE "0:"
    INDEX 01 00:39:39
  TRACK 28 AUDIO
    TITLE "7:cjc058_5126"
    INDEX 01 00:40:40
  TRACK 29 AUDIO
    TITLE "0:"
    INDEX 01 00:42:00
  TRACK 30 AUDIO
    TITLE "8:cjc058_5127"
    INDEX 01 00:42:25
  TRACK 31 AUDIO
    TITLE "0:"
    INDEX 01 00:44:65
  TRACK 32 AUDIO
    TITLE "9:cjc058_5128"
    INDEX 01 00:45:33
  TRACK 33 AUDIO
    TITLE "0:"
    INDEX 01 00:50:09
  TRACK 34 AUDIO
    TITLE "7:cjc058_5129"
    INDEX 01 00:51:16
  TRACK 35 AUDIO
    TITLE "0:"
    INDEX 01 00:52:32
  TRACK 36 AUDIO
    TITLE "8:cjc058_5130"
    INDEX 01 00:52:67
  TRACK 37 AUDIO
    TITLE "0:"
    INDEX 01 00:55:46
  TRACK 38 AUDIO
    TITLE "9:cjc058_5131"
    INDEX 01 00:56:12
  TRACK 39 AUDIO
    TITLE "0:"
    INDEX 01 00:59:59
  TRACK 40 AUDIO
    TITLE "7:cjc058_5132"
    INDEX 01 01:00:62
  TRACK 41 AUDIO
    TITLE "0:"
    INDEX 01 01:02:10
  TRACK 42 AUDIO
    TITLE "8:cjc058_5133"
    INDEX 01 01:02:42
  TRACK 43 AUDIO
    TITLE "0:"
    INDEX 01 01:04:58
  TRACK 44 AUDIO
    TITLE "9:cjc058_5134"
    INDEX 01 01:05:24
  TRACK 45 AUDIO
    TITLE "0:"
    INDEX 01 01:09:48
  TRACK 46 AUDIO
    TITLE "7:cjc058_5135"
    INDEX 01 01:10:53
  TRACK 47 AUDIO
    TITLE "0:"
    INDEX 01 01:12:03
  TRACK 48 AUDIO
    TITLE "8:cjc058_5136"
    INDEX 01 01:12:34
  TRACK 49 AUDIO
    TITLE "0:"
    INDEX 01 01:14:21
  TRACK 50 AUDIO
    TITLE "9:cjc058_5137"
    INDEX 01 01:14:65
  TRACK 51 AUDIO
    TITLE "0:"
    INDEX 01 01:19:42
  TRACK 52 AUDIO
    TITLE "7:cjc058_5138"
    INDEX 01 01:20:49
  TRACK 53 AUDIO
    TITLE "0:"
    INDEX 01 01:22:17
  TRACK 54 AUDIO
    TITLE "8:cjc058_5139"
    INDEX 01 01:22:48
  TRACK 55 AUDIO
    TITLE "0:"
    INDEX 01 01:25:66
  TRACK 56 AUDIO
    TITLE "9:cjc058_5140"
    INDEX 01 01:26:36
  TRACK 57 AUDIO
    TITLE "0:"
    INDEX 01 01:31:59
  TRACK 58 AUDIO
    TITLE "7:cjc058_5141"
    INDEX 01 01:32:64
  TRACK 59 AUDIO
    TITLE "0:"
    INDEX 01 01:34:12
  TRACK 60 AUDIO
    TITLE "8:cjc058_5142"
    INDEX 01 01:34:44
  TRACK 61 AUDIO
    TITLE "0:"
    INDEX 01 01:36:35
  TRACK 62 AUDIO
    TITLE "9:cjc058_5143"
    INDEX 01 01:37:01
  TRACK 63 AUDIO
    TITLE "0:"
    INDEX 01 01:42:41
